<svg version="1.0" xmlns="http://www.w3.org/2000/svg" viewBox="0 0 212 153">
    <g fill="#ffffff">
        <path d="M76.85 108.75 c0.30 -0.90 0.25 -0.90 -0.50 -0.30 -0.75 0.60 -0.85 0.50 -0.85 -0.85 0 -3.50 18.15 -21.60 31.65 -31.60 25 -18.50 55.75 -35.95 85.10 -48.30 5.15 -2.15 6.25 -2.20 6.25 -0.20 0 0.85 -0.25 1.50 -0.50 1.50 -0.30 0 -2.45 0.90 -4.80 2 -2.35 1.10 -4.40 2 -4.50 2 -1.30 0 -32.75 15.80 -38.85 19.55 -1.30 0.80 -2.50 1.45 -2.65 1.45 -0.15 0 -1.25 0.70 -2.45 1.50 -1.20 0.85 -2.30 1.50 -2.40 1.50 -0.95 0 -26.60 16.90 -34.10 22.50 -7.20 5.35 -16.85 14.40 -29.15 27.50 -1.45 1.50 -2.45 2.30 -2.25 1.75z"/>
        <path d="M6.55 86.05 c-2.85 -3.30 -3.15 -4.65 -1.30 -6.35 0.70 -0.65 1.25 -1.60 1.25 -2.10 0 -1.45 5.15 -6.10 6.80 -6.10 1.30 0 1.35 0.05 1.05 2.65 -0.15 1.80 -0.05 2.90 0.45 3.60 0.95 1.30 0.90 5.95 -0.05 6.75 -0.40 0.35 -0.75 1.25 -0.75 2 0 1.10 -0.30 1.50 -1.55 1.95 -2.65 0.90 -3.20 0.70 -5.90 -2.40z"/>
        <path d="M66.65 87 c-0.15 -0.55 -0.65 -1 -1.10 -1 -0.50 0 -2.55 -1.75 -4.60 -3.85 -5.90 -6.10 -9.95 -12.35 -9.95 -15.35 0 -0.95 -0.25 -1.05 -2.30 -0.90 -2.25 0.20 -2.25 0.20 -2.10 -1.70 0.15 -1.75 0.30 -1.95 2.40 -2.60 1.25 -0.40 3.40 -1.50 4.80 -2.40 2.80 -1.85 5.90 -2.40 4.65 -0.85 -0.60 0.75 -0.60 0.80 0.30 0.50 0.55 -0.20 -0.10 0.65 -1.50 1.90 -1.35 1.20 -2.75 2.25 -3.05 2.25 -0.90 0 -1.25 1.40 -0.70 2.50 0.30 0.55 0.75 1.45 1 2 0.30 0.55 0.50 1.35 0.50 1.75 0 0.45 0.45 0.75 1.15 0.75 0.75 0 1.50 0.65 2.45 2.20 0.80 1.15 3.20 4.05 5.40 6.45 2.20 2.35 4 4.45 4 4.75 0 0.25 0.70 0.60 1.50 0.80 1.35 0.25 1.50 0.50 1.50 2.05 0 1.70 -0.05 1.75 -2.05 1.75 -1.60 0 -2.10 -0.20 -2.30 -1z"/>
        <path d="M33.50 85.60 c0 -1.20 0.50 -2.05 2.20 -3.65 2.25 -2.05 3.30 -4.35 4.05 -8.55 0.30 -1.85 0.35 -1.90 2.35 -1.90 2 0 2 0 1.65 3.30 -0.20 2.15 -0.75 3.85 -1.50 5 -0.65 0.95 -1.30 2.35 -1.50 3.15 -0.45 2.15 -2.35 3.65 -4.95 3.90 -2.30 0.30 -2.30 0.30 -2.30 -1.25z"/>
        <path d="M24.60 67.65 c0.15 -1.70 0.30 -1.85 2.70 -2.65 1.40 -0.45 3.45 -1.55 4.50 -2.40 1.40 -1.15 2.45 -1.60 3.80 -1.60 1.85 0 1.90 0.05 1.90 1.75 0 1.45 -0.45 2.30 -2.30 4.25 -2.35 2.50 -2.35 2.50 -6.55 2.50 -4.20 0 -4.20 0 -4.05 -1.85z"/>
    </g>
    <g fill="#bd0000">
        <path d="M93.50 152.50 c-0.70 -0.20 -3.40 -0.65 -6 -1 -13.75 -1.80 -25 -4.55 -40.65 -9.95 -14.85 -5.15 -24 -9.45 -33.85 -15.95 -5.55 -3.70 -13 -10.30 -13 -11.60 0 -0.70 7.95 -8.70 13.25 -13.35 7.55 -6.60 11.80 -10.10 13.95 -11.70 1.30 -0.90 2.30 -1.80 2.30 -2 0 -0.20 -0.85 -0.50 -1.85 -0.65 -4.35 -0.75 -4.65 -0.85 -4.65 -1.85 0 -0.90 0.40 -0.95 6.15 -0.95 6.15 0 6.15 0 7.75 -1.65 1.80 -1.85 3.60 -6.05 3.60 -8.40 0 -1.45 0.10 -1.50 1.90 -1.35 1.85 0.15 1.85 0.15 2.15 3.90 1.15 13.25 1.55 16.30 2.75 21 0.70 2.85 1.80 5.90 2.40 6.80 2.40 3.60 10 11.80 12.45 13.40 8.25 5.40 35.35 20.45 35.35 19.60 0 -0.10 -1.65 -1.15 -3.60 -2.30 -12.50 -7.30 -20.55 -13.05 -22.25 -15.90 -1.50 -2.40 -1.55 -5.60 -0.15 -5.60 0.70 0 0.90 0.25 0.65 0.80 -0.30 0.85 4.50 5.80 7.80 8 1 0.65 2.70 1.80 3.85 2.55 2.70 1.85 9.15 5.80 12.95 7.95 0.55 0.30 1.90 1.05 3 1.70 1.10 0.60 8.65 4.75 16.75 9.15 8.10 4.40 15 8.20 15.25 8.45 0.95 0.85 -10.35 0.05 -13.25 -0.90 -6.45 -2.15 -44.70 -22.15 -53.75 -28.10 -4.80 -3.15 -11.70 -9.55 -15.80 -14.60 -3.05 -3.70 -5.40 -13 -5.90 -23 -0.35 -6.25 -0.35 -6.25 -1.45 -3.90 -1.65 3.45 -2.25 7.50 -1.90 12.90 0.60 10.15 4.65 21.70 9.40 27.15 1.85 2.10 1.85 2.10 1.90 0.25 0 -1.05 0.20 -1.90 0.40 -1.90 0.20 0 1.70 1.70 3.25 3.75 1.60 2.05 3.20 3.75 3.55 3.75 0.75 0 1.30 -1.05 1.30 -2.55 0 -0.60 0.25 -0.80 0.75 -0.65 0.40 0.20 0.75 0.55 0.75 0.80 0 0.30 0.80 1.60 1.80 3 3.10 4.20 4.40 4.95 35.10 19.45 2.95 1.40 6.20 2.90 7.25 3.30 1.20 0.50 1.85 1.10 1.85 1.70 0 0.90 -0.45 0.95 -6.10 0.90 -3.40 0 -6.70 -0.20 -7.40 -0.45z"/>
        <path d="M74 112.25 c0.40 -0.55 2.05 -2.55 3.70 -4.50 10.40 -12.10 21.05 -22.25 31.25 -29.80 5.25 -3.90 19.80 -13.75 23.90 -16.25 0.90 -0.50 5.20 -3.10 9.50 -5.75 14.85 -9.10 26.45 -15.10 46.25 -23.95 4.60 -2.05 8.35 -3.90 8.40 -4.10 0 -0.15 -4.20 1.60 -9.35 3.90 -25.45 11.45 -43.30 21.40 -66.40 36.90 -19.15 12.85 -28.55 21.05 -43.15 37.55 -2.35 2.65 -2.60 2.85 -2.50 1.65 0.20 -1.80 10.95 -13.50 19.45 -21.20 3.60 -3.25 9.15 -7.85 12.35 -10.25 5.15 -3.80 19.45 -13.50 23.95 -16.25 0.90 -0.50 3.40 -2.05 5.60 -3.35 2.25 -1.35 4.05 -2.55 4.05 -2.70 0 -0.10 -0.15 -0.10 -0.35 0 -0.25 0.15 -2.85 1.65 -5.90 3.35 -11.70 6.70 -14.95 8.55 -20.85 12.05 -3.40 2 -7.25 4.35 -8.65 5.20 -1.35 0.90 -3.50 2.20 -4.75 2.95 -1.25 0.75 -3.60 2.20 -5.30 3.25 -10.35 6.45 -14.65 8.05 -21.50 8.05 -3.30 0 -5.10 -0.20 -5.65 -0.65 -0.45 -0.35 -2.95 -2.80 -5.60 -5.40 -4.95 -4.90 -8.05 -9 -10 -13.20 -1.35 -2.95 -1.70 -3.25 -3.85 -3.25 -1.60 0 -1.65 -0.05 -1.50 -1.85 0.15 -1.75 0.30 -1.90 3.15 -3 1.60 -0.65 3.80 -1.80 4.80 -2.65 2 -1.60 4.65 -2.15 3.45 -0.75 -1.05 1.25 -5.65 4.10 -7.75 4.75 -1.10 0.35 -2.20 0.85 -2.50 1.15 -0.35 0.35 -0.20 0.40 0.50 0.15 5.05 -1.85 6.60 -2.70 9.80 -5.35 3.70 -3 3.70 -3 0 0.55 -2.05 1.90 -4 3.50 -4.35 3.50 -0.85 0 -1.25 1.40 -0.70 2.50 0.30 0.55 0.75 1.45 1 2 0.30 0.55 0.50 1.35 0.50 1.75 0 1.40 1.50 0.85 7.75 -2.75 9.50 -5.50 24.15 -12.55 42 -20.25 4.55 -2 15.40 -6.20 21.50 -8.35 18.65 -6.65 28.10 -9.20 43.75 -11.90 3.45 -0.60 7.35 -1.25 8.65 -1.55 1.30 -0.25 2.60 -0.45 2.85 -0.45 1 0 0.45 0.85 -0.85 1.50 -4.35 2 -28.30 11.70 -35.85 14.50 -1.60 0.60 -6.30 3.05 -10.50 5.40 -23.60 13.30 -29.55 17.05 -42.55 26.60 -4.10 3 -10.05 7.35 -13.15 9.60 -4.50 3.25 -5.50 4.20 -4.85 4.55 2.65 1.45 12.95 -3.60 34 -16.75 13.90 -8.65 42.55 -24.75 52.50 -29.40 7.05 -3.35 20.30 -8.70 27.75 -11.15 8.50 -2.85 24 -7.25 24 -6.90 0 0.35 -9.95 5.25 -14 6.90 -0.95 0.40 -3.40 1.50 -5.40 2.45 -2.05 0.95 -3.75 1.70 -3.85 1.70 -1.35 0 -32.80 15.80 -38.90 19.55 -1.30 0.80 -2.50 1.45 -2.65 1.45 -0.15 0 -1.25 0.70 -2.45 1.50 -1.20 0.85 -2.30 1.50 -2.40 1.50 -0.95 0 -26.60 16.90 -34.10 22.50 -7.35 5.45 -19.05 16.55 -29.30 27.75 -4.30 4.70 -5.70 6.10 -4.95 5z"/>
        <path d="M53.25 99.65 c-2.30 -0.60 -3.30 -1.75 -3.15 -3.60 0.15 -1.50 0.55 -2.05 2.85 -3.65 1.50 -1.05 3.65 -2.15 4.75 -2.45 2.70 -0.75 10.40 -0.25 13.45 0.80 2.35 0.85 2.40 0.90 2.25 2.70 -0.15 1.80 -0.15 1.80 -3.45 2.10 -2.50 0.20 -4.45 0.80 -7.70 2.35 -4.20 2 -6.25 2.40 -9 1.75z"/>
        <path d="M6.70 86.15 c-3.90 -4.55 -3.80 -4.40 -3.20 -5.90 0.65 -1.75 5.95 -6.70 12.95 -12 3.15 -2.40 7.10 -5.50 8.75 -6.90 1.70 -1.45 3.15 -2.65 3.25 -2.70 0.45 -0.30 -0.45 -0.70 -3.25 -1.40 -4.40 -1.10 -11.05 -4.65 -13.80 -7.35 -2.50 -2.45 -4.90 -6.75 -4.90 -8.85 0 -1.10 0.25 -0.95 2.90 1.50 5.50 5.20 10.85 7.85 16.85 8.30 3.55 0.30 3.55 0.30 4.25 -1.85 0.70 -2.10 0.65 -2.15 -1.45 -6.20 -2.70 -5 -3.60 -6 -6.35 -7.15 -2.60 -1.05 -2.80 -1.90 -0.65 -2.35 3.75 -0.75 4.60 -0.45 7.50 2.60 3.85 3.95 6.60 8.05 7.65 11.25 0.45 1.45 2.25 0.95 4.55 -1.40 2.60 -2.60 2.85 -4.15 1.20 -7.10 -2 -3.55 -3.05 -4.65 -8.10 -8.75 -6.35 -5.05 -9.20 -7.75 -10.15 -9.50 -0.80 -1.55 -0.95 -5.40 -0.20 -5.40 0.25 0 1.20 1 2.10 2.25 1.10 1.50 3.55 3.55 7.40 6.05 8.35 5.55 12.20 8.85 14.65 12.55 2.40 3.65 1.85 3.85 6.70 -2.60 2.55 -3.40 2.60 -3.90 0.15 -9 -2.40 -5.05 -4.95 -7.95 -8.20 -9.30 -3.15 -1.25 -3.10 -1.80 0.25 -2.25 2.15 -0.30 2.40 -0.20 5.95 2.50 4.85 3.70 6.05 3.70 6.35 -0.10 0.30 -3.80 -0.90 -7.40 -3.85 -11.40 -2.45 -3.35 -2.60 -4.35 -0.55 -3.25 0.55 0.30 1.40 0.55 1.95 0.55 0.50 0 2 0.80 3.25 1.80 4.95 3.85 6.90 11.45 5.15 19.70 -0.90 4.35 -0.95 5 -0.35 5 0.65 0 2.30 -2.95 3.60 -6.45 0.60 -1.70 1.30 -3.20 1.60 -3.40 0.80 -0.50 0.10 10.30 -0.80 12.50 -0.45 1.05 -3.70 4.95 -7.20 8.65 -3.55 3.75 -6.50 7 -6.60 7.30 -0.35 0.95 6 0.15 8.15 -1.05 1.05 -0.60 2 -1.05 2.05 -0.95 0.10 0.10 -0.20 1.60 -0.60 3.40 -0.40 1.80 -0.80 3.70 -0.90 4.25 -0.10 0.55 -0.55 1.45 -1 2 -0.70 0.90 -0.75 0.75 -0.50 -2.50 0.10 -1.90 0.10 -3.10 -0.05 -2.60 -0.15 0.45 -0.60 0.85 -1 0.85 -0.50 0 -0.70 0.65 -0.70 2.40 0 2.95 -1.40 4.60 -3.90 4.60 -0.90 0 -3.65 0.80 -6.20 1.75 -2.55 0.95 -5.50 1.75 -6.50 1.75 -1.75 0 -1.90 -0.15 -1.95 -1.35 0 -0.80 -0.15 -1.10 -0.30 -0.75 -0.25 0.70 -4.20 0.85 -4.90 0.15 -0.30 -0.30 -1.40 -0.05 -2.75 0.60 -2.25 1.10 -2.25 1.10 -0.10 1.25 2.05 0.15 2.10 0.20 2.10 2.05 0 1.60 -0.30 2.10 -1.85 3.35 -3.15 2.50 -3.50 2.50 -1.25 0 1.20 -1.30 2.05 -2.50 1.90 -2.65 -0.15 -0.15 -1.35 0.55 -2.65 1.55 -1.30 1 -3.35 2.10 -4.50 2.40 -2.80 0.70 -3.20 1.40 -0.80 1.40 1.90 0.05 1.90 0.05 0.15 0.80 -1.15 0.50 -2.65 0.70 -4.50 0.55 -2.70 -0.20 -2.80 -0.15 -6 2.40 -1.80 1.40 -3.75 2.85 -4.40 3.20 -1.10 0.60 -1.15 0.55 -0.60 -0.45 1.15 -2.10 -0.05 -1.85 -2.95 0.60 -1.20 1.05 -1.55 1.75 -1.55 3.15 0 1.30 -0.35 2.15 -1.30 3 -1.65 1.55 -1.35 2.35 1.65 4.25 1.30 0.85 2.30 1.70 2.15 1.90 -0.15 0.20 0.25 0.40 0.90 0.50 0.90 0.15 1.10 -0.05 1.10 -1.05 0 -1.45 0.80 -1.85 3.80 -1.85 3.45 0 2.75 1.15 -1.65 2.65 -2.15 0.75 -4.25 1.35 -4.70 1.35 -0.45 0 -1.90 -1.30 -3.25 -2.85z"/>
    </g>
    <g fill="#000000">
        <path d="M122.50 150.45 c-4.55 -1.05 -6.65 -2 -21.10 -9.25 -17.20 -8.55 -32.10 -16.80 -40.75 -22.50 -2.45 -1.65 -10.05 -9.80 -12.50 -13.40 -2.20 -3.35 -3.85 -12.05 -4.95 -26.90 -0.45 -5.65 -1.40 -7.35 -1.90 -3.35 -0.40 3.10 -1.80 6.15 -3.65 8.10 -1.85 1.85 -1.85 1.85 -6.90 1.85 -2.75 0 -6.70 0.30 -8.75 0.70 -2.05 0.40 -5.05 0.85 -6.60 1.05 -2.90 0.30 -2.90 0.30 -2.90 -1.40 0 -0.95 0.35 -2 0.75 -2.35 1.10 -0.90 0.90 -2.75 -0.50 -4.40 -1.25 -1.50 -1.25 -1.50 -0.35 -3.85 0.95 -2.60 1.95 -3.50 16.30 -14.30 5.70 -4.30 8.90 -5.40 10.80 -3.70 0.70 0.65 1 0.45 2.95 -2 1.45 -1.80 3.10 -3.20 4.75 -4 3 -1.45 9.15 -2.75 13.15 -2.75 2.65 0 2.75 0.05 2.45 1.10 -0.15 0.65 -0.30 2 -0.30 3.05 0 1.55 -0.40 2.35 -2.30 4.35 -2.80 2.95 -6.65 5.60 -9.70 6.60 -2.65 0.85 -2.75 1.55 -0.20 1.90 1.65 0.25 1.90 0.50 2.80 2.75 1.90 4.85 8.85 13.25 14.65 17.75 2.45 1.85 2.80 2 5.95 2 5.20 0 10.50 -2.10 20 -8.05 1.70 -1.05 4.05 -2.50 5.30 -3.25 1.25 -0.75 3.40 -2.05 4.75 -2.95 1.40 -0.85 6.10 -3.70 10.50 -6.25 4.40 -2.55 9.80 -5.70 12 -7 8.65 -5.10 31.70 -17.75 35.50 -19.50 5.60 -2.60 18.20 -7.65 23.50 -9.45 2.50 -0.80 5.80 -1.95 7.45 -2.55 6.15 -2.20 3.55 -0.55 -5.50 3.50 -24.50 11 -42.80 21.15 -65.95 36.70 -14.55 9.75 -22.10 15.75 -31.40 25 -6.15 6.20 -15.15 16.25 -17.30 19.40 -1.45 2.10 -1.45 2.10 -0.20 3.75 2.45 3.20 11.75 9.60 25.40 17.50 8 4.60 22.65 12.55 26.85 14.55 4.60 2.20 3.60 2.95 -2.10 1.55z m-62.60 -53.65 c4.20 -2.10 8.80 -3.50 10.35 -3.10 0.65 0.15 1.30 0.10 1.45 -0.15 0.60 -0.90 -4.85 -2.30 -8.95 -2.30 -3.75 0 -4.25 0.15 -6.95 1.75 -1.55 0.95 -3.20 2.10 -3.60 2.55 -0.65 0.70 -0.60 0.90 0.45 1.60 1 0.65 2.20 1.10 3.50 1.30 0.20 0 1.90 -0.70 3.75 -1.65z m-26.25 -31.25 c1.50 -1.60 2.25 -2.75 2.05 -3.25 -0.40 -1 -1.40 -1 -2.20 -0.05 -0.35 0.40 -1.35 0.75 -2.20 0.75 -2.65 0 -8.75 3.35 -8.10 4.40 0.10 0.20 2 0.40 4.15 0.50 3.95 0.15 3.95 0.15 6.30 -2.35z m16.25 -8.80 c2.55 -0.95 5.30 -1.75 6.20 -1.75 1.80 0 3.90 -1.65 3.90 -3.10 0 -0.70 -0.40 -0.90 -1.60 -0.90 -1.90 0 -5.60 1.05 -7.95 2.25 -3.30 1.70 -7.10 5.25 -5.55 5.25 0.20 0 2.45 -0.80 5 -1.75z"/>
    </g>
</svg>